<?xml version="1.0" encoding="UTF-8" standalone="no"?>
<!DOCTYPE svg PUBLIC "-//W3C//DTD SVG 1.1//EN"
 "http://www.w3.org/Graphics/SVG/1.1/DTD/svg11.dtd">
<!-- Generated by graphviz version 2.40.1 (20161225.0304)
 -->
<!-- Title: snakemake_dag Pages: 1 -->
<svg width="310pt" height="481pt"
 viewBox="0.00 0.00 309.50 481.00" xmlns="http://www.w3.org/2000/svg" xmlns:xlink="http://www.w3.org/1999/xlink">
<g id="graph0" class="graph" transform="scale(1 1) rotate(0) translate(4 477)">
<title>snakemake_dag</title>
<polygon fill="#ffffff" stroke="transparent" points="-4,4 -4,-477 305.5,-477 305.5,4 -4,4"/>
<!-- 0 -->
<g id="node1" class="node">
<title>0</title>
<path fill="none" stroke="#56d89a" stroke-width="2" d="M197,-36C197,-36 140,-36 140,-36 134,-36 128,-30 128,-24 128,-24 128,-12 128,-12 128,-6 134,0 140,0 140,0 197,0 197,0 203,0 209,-6 209,-12 209,-12 209,-24 209,-24 209,-30 203,-36 197,-36"/>
<text text-anchor="middle" x="168.5" y="-15.5" font-family="sans" font-size="10.00" fill="#000000">kirimp_ready</text>
</g>
<!-- 1 -->
<g id="node2" class="node">
<title>1</title>
<path fill="none" stroke="#567bd8" stroke-width="2" d="M148,-108C148,-108 107,-108 107,-108 101,-108 95,-102 95,-96 95,-96 95,-84 95,-84 95,-78 101,-72 107,-72 107,-72 148,-72 148,-72 154,-72 160,-78 160,-84 160,-84 160,-96 160,-96 160,-102 154,-108 148,-108"/>
<text text-anchor="middle" x="127.5" y="-93" font-family="sans" font-size="10.00" fill="#000000">shapeit4</text>
<text text-anchor="middle" x="127.5" y="-82" font-family="sans" font-size="10.00" fill="#000000">region: 19</text>
</g>
<!-- 1&#45;&gt;0 -->
<g id="edge1" class="edge">
<title>1&#45;&gt;0</title>
<path fill="none" stroke="#c0c0c0" stroke-width="2" d="M137.846,-71.8314C142.4237,-63.7925 147.9052,-54.1666 152.9588,-45.2918"/>
<polygon fill="#c0c0c0" stroke="#c0c0c0" stroke-width="2" points="156.1077,-46.8351 158.0147,-36.4133 150.0248,-43.3712 156.1077,-46.8351"/>
</g>
<!-- 2 -->
<g id="node3" class="node">
<title>2</title>
<path fill="none" stroke="#d87556" stroke-width="2" d="M231,-108C231,-108 190,-108 190,-108 184,-108 178,-102 178,-96 178,-96 178,-84 178,-84 178,-78 184,-72 190,-72 190,-72 231,-72 231,-72 237,-72 243,-78 243,-84 243,-84 243,-96 243,-96 243,-102 237,-108 231,-108"/>
<text text-anchor="middle" x="210.5" y="-93" font-family="sans" font-size="10.00" fill="#000000">shapeit</text>
<text text-anchor="middle" x="210.5" y="-82" font-family="sans" font-size="10.00" fill="#000000">region: 19</text>
</g>
<!-- 2&#45;&gt;0 -->
<g id="edge2" class="edge">
<title>2&#45;&gt;0</title>
<path fill="none" stroke="#c0c0c0" stroke-width="2" d="M199.9016,-71.8314C195.2123,-63.7925 189.5972,-54.1666 184.4202,-45.2918"/>
<polygon fill="#c0c0c0" stroke="#c0c0c0" stroke-width="2" points="187.3031,-43.2875 179.2411,-36.4133 181.2566,-46.8146 187.3031,-43.2875"/>
</g>
<!-- 3 -->
<g id="node4" class="node">
<title>3</title>
<path fill="none" stroke="#d8b456" stroke-width="2" d="M141.5,-180C141.5,-180 61.5,-180 61.5,-180 55.5,-180 49.5,-174 49.5,-168 49.5,-168 49.5,-156 49.5,-156 49.5,-150 55.5,-144 61.5,-144 61.5,-144 141.5,-144 141.5,-144 147.5,-144 153.5,-150 153.5,-156 153.5,-156 153.5,-168 153.5,-168 153.5,-174 147.5,-180 141.5,-180"/>
<text text-anchor="middle" x="101.5" y="-159.5" font-family="sans" font-size="10.00" fill="#000000">freq_encode_snps</text>
</g>
<!-- 3&#45;&gt;1 -->
<g id="edge3" class="edge">
<title>3&#45;&gt;1</title>
<path fill="none" stroke="#c0c0c0" stroke-width="2" d="M108.0609,-143.8314C110.9027,-135.9617 114.2937,-126.5712 117.4419,-117.8533"/>
<polygon fill="#c0c0c0" stroke="#c0c0c0" stroke-width="2" points="120.7462,-119.0076 120.8508,-108.4133 114.1623,-116.63 120.7462,-119.0076"/>
</g>
<!-- 3&#45;&gt;2 -->
<g id="edge5" class="edge">
<title>3&#45;&gt;2</title>
<path fill="none" stroke="#c0c0c0" stroke-width="2" d="M129.0053,-143.8314C142.818,-134.7074 159.7256,-123.539 174.5529,-113.7449"/>
<polygon fill="#c0c0c0" stroke="#c0c0c0" stroke-width="2" points="176.5886,-116.5949 183.0035,-108.1628 172.7304,-110.7541 176.5886,-116.5949"/>
</g>
<!-- 4 -->
<g id="node5" class="node">
<title>4</title>
<path fill="none" stroke="#d85656" stroke-width="2" d="M289.5,-180C289.5,-180 183.5,-180 183.5,-180 177.5,-180 171.5,-174 171.5,-168 171.5,-168 171.5,-156 171.5,-156 171.5,-150 177.5,-144 183.5,-144 183.5,-144 289.5,-144 289.5,-144 295.5,-144 301.5,-150 301.5,-156 301.5,-156 301.5,-168 301.5,-168 301.5,-174 295.5,-180 289.5,-180"/>
<text text-anchor="middle" x="236.5" y="-159.5" font-family="sans" font-size="10.00" fill="#000000">generate_kirimp_gmap</text>
</g>
<!-- 4&#45;&gt;1 -->
<g id="edge4" class="edge">
<title>4&#45;&gt;1</title>
<path fill="none" stroke="#c0c0c0" stroke-width="2" d="M208.9947,-143.8314C195.182,-134.7074 178.2744,-123.539 163.4471,-113.7449"/>
<polygon fill="#c0c0c0" stroke="#c0c0c0" stroke-width="2" points="165.2696,-110.7541 154.9965,-108.1628 161.4114,-116.5949 165.2696,-110.7541"/>
</g>
<!-- 4&#45;&gt;2 -->
<g id="edge6" class="edge">
<title>4&#45;&gt;2</title>
<path fill="none" stroke="#c0c0c0" stroke-width="2" d="M229.9391,-143.8314C227.0973,-135.9617 223.7063,-126.5712 220.5581,-117.8533"/>
<polygon fill="#c0c0c0" stroke="#c0c0c0" stroke-width="2" points="223.8377,-116.63 217.1492,-108.4133 217.2538,-119.0076 223.8377,-116.63"/>
</g>
<!-- 5 -->
<g id="node6" class="node">
<title>5</title>
<path fill="none" stroke="#56d8d8" stroke-width="2" stroke-dasharray="5,2" d="M89,-252C89,-252 12,-252 12,-252 6,-252 0,-246 0,-240 0,-240 0,-228 0,-228 0,-222 6,-216 12,-216 12,-216 89,-216 89,-216 95,-216 101,-222 101,-228 101,-228 101,-240 101,-240 101,-246 95,-252 89,-252"/>
<text text-anchor="middle" x="50.5" y="-231.5" font-family="sans" font-size="10.00" fill="#000000">get_kirimp_panel</text>
</g>
<!-- 5&#45;&gt;3 -->
<g id="edge7" class="edge">
<title>5&#45;&gt;3</title>
<path fill="none" stroke="#c0c0c0" stroke-width="2" d="M63.3695,-215.8314C69.1835,-207.6232 76.1696,-197.7606 82.5646,-188.7323"/>
<polygon fill="#c0c0c0" stroke="#c0c0c0" stroke-width="2" points="85.5331,-190.5966 88.4573,-180.4133 79.821,-186.5505 85.5331,-190.5966"/>
</g>
<!-- 6 -->
<g id="node7" class="node">
<title>6</title>
<path fill="none" stroke="#78d856" stroke-width="2" d="M175.5,-252C175.5,-252 131.5,-252 131.5,-252 125.5,-252 119.5,-246 119.5,-240 119.5,-240 119.5,-228 119.5,-228 119.5,-222 125.5,-216 131.5,-216 131.5,-216 175.5,-216 175.5,-216 181.5,-216 187.5,-222 187.5,-228 187.5,-228 187.5,-240 187.5,-240 187.5,-246 181.5,-252 175.5,-252"/>
<text text-anchor="middle" x="153.5" y="-231.5" font-family="sans" font-size="10.00" fill="#000000">create_vcf</text>
</g>
<!-- 6&#45;&gt;3 -->
<g id="edge8" class="edge">
<title>6&#45;&gt;3</title>
<path fill="none" stroke="#c0c0c0" stroke-width="2" d="M140.3782,-215.8314C134.4501,-207.6232 127.3271,-197.7606 120.8067,-188.7323"/>
<polygon fill="#c0c0c0" stroke="#c0c0c0" stroke-width="2" points="123.4908,-186.4708 114.7985,-180.4133 117.816,-190.5693 123.4908,-186.4708"/>
</g>
<!-- 7 -->
<g id="node8" class="node">
<title>7</title>
<path fill="none" stroke="#b6d856" stroke-width="2" d="M195,-324C195,-324 112,-324 112,-324 106,-324 100,-318 100,-312 100,-312 100,-300 100,-300 100,-294 106,-288 112,-288 112,-288 195,-288 195,-288 201,-288 207,-294 207,-300 207,-300 207,-312 207,-312 207,-318 201,-324 195,-324"/>
<text text-anchor="middle" x="153.5" y="-303.5" font-family="sans" font-size="10.00" fill="#000000">create_plink_lifted</text>
</g>
<!-- 7&#45;&gt;6 -->
<g id="edge9" class="edge">
<title>7&#45;&gt;6</title>
<path fill="none" stroke="#c0c0c0" stroke-width="2" d="M153.5,-287.8314C153.5,-280.131 153.5,-270.9743 153.5,-262.4166"/>
<polygon fill="#c0c0c0" stroke="#c0c0c0" stroke-width="2" points="157.0001,-262.4132 153.5,-252.4133 150.0001,-262.4133 157.0001,-262.4132"/>
</g>
<!-- 8 -->
<g id="node9" class="node">
<title>8</title>
<path fill="none" stroke="#56b9d8" stroke-width="2" d="M168.5,-396C168.5,-396 138.5,-396 138.5,-396 132.5,-396 126.5,-390 126.5,-384 126.5,-384 126.5,-372 126.5,-372 126.5,-366 132.5,-360 138.5,-360 138.5,-360 168.5,-360 168.5,-360 174.5,-360 180.5,-366 180.5,-372 180.5,-372 180.5,-384 180.5,-384 180.5,-390 174.5,-396 168.5,-396"/>
<text text-anchor="middle" x="153.5" y="-375.5" font-family="sans" font-size="10.00" fill="#000000">liftOver</text>
</g>
<!-- 8&#45;&gt;7 -->
<g id="edge10" class="edge">
<title>8&#45;&gt;7</title>
<path fill="none" stroke="#c0c0c0" stroke-width="2" d="M153.5,-359.8314C153.5,-352.131 153.5,-342.9743 153.5,-334.4166"/>
<polygon fill="#c0c0c0" stroke="#c0c0c0" stroke-width="2" points="157.0001,-334.4132 153.5,-324.4133 150.0001,-334.4133 157.0001,-334.4132"/>
</g>
<!-- 9 -->
<g id="node10" class="node">
<title>9</title>
<path fill="none" stroke="#97d856" stroke-width="2" d="M136.5,-473C136.5,-473 50.5,-473 50.5,-473 44.5,-473 38.5,-467 38.5,-461 38.5,-461 38.5,-444 38.5,-444 38.5,-438 44.5,-432 50.5,-432 50.5,-432 136.5,-432 136.5,-432 142.5,-432 148.5,-438 148.5,-444 148.5,-444 148.5,-461 148.5,-461 148.5,-467 142.5,-473 136.5,-473"/>
<text text-anchor="middle" x="93.5" y="-461" font-family="sans" font-size="10.00" fill="#000000">generate_ucsc_bed</text>
<text text-anchor="middle" x="93.5" y="-450" font-family="sans" font-size="10.00" fill="#000000">project: traherne</text>
<text text-anchor="middle" x="93.5" y="-439" font-family="sans" font-size="10.00" fill="#000000">reference: hg18</text>
</g>
<!-- 9&#45;&gt;8 -->
<g id="edge11" class="edge">
<title>9&#45;&gt;8</title>
<path fill="none" stroke="#c0c0c0" stroke-width="2" d="M110.2133,-431.7476C117.1158,-423.177 125.1942,-413.1463 132.4908,-404.0864"/>
<polygon fill="#c0c0c0" stroke="#c0c0c0" stroke-width="2" points="135.3693,-406.0923 138.9158,-396.1087 129.9175,-401.7016 135.3693,-406.0923"/>
</g>
<!-- 10 -->
<g id="node11" class="node">
<title>10</title>
<path fill="none" stroke="#d6d856" stroke-width="2" stroke-dasharray="5,2" d="M248,-470.5C248,-470.5 179,-470.5 179,-470.5 173,-470.5 167,-464.5 167,-458.5 167,-458.5 167,-446.5 167,-446.5 167,-440.5 173,-434.5 179,-434.5 179,-434.5 248,-434.5 248,-434.5 254,-434.5 260,-440.5 260,-446.5 260,-446.5 260,-458.5 260,-458.5 260,-464.5 254,-470.5 248,-470.5"/>
<text text-anchor="middle" x="213.5" y="-455.5" font-family="sans" font-size="10.00" fill="#000000">get_overchain</text>
<text text-anchor="middle" x="213.5" y="-444.5" font-family="sans" font-size="10.00" fill="#000000">reference: hg18</text>
</g>
<!-- 10&#45;&gt;8 -->
<g id="edge12" class="edge">
<title>10&#45;&gt;8</title>
<path fill="none" stroke="#c0c0c0" stroke-width="2" d="M198.9757,-434.4656C191.6599,-425.3819 182.6534,-414.1989 174.591,-404.1881"/>
<polygon fill="#c0c0c0" stroke="#c0c0c0" stroke-width="2" points="177.0969,-401.7194 168.0985,-396.1265 171.6451,-406.1101 177.0969,-401.7194"/>
</g>
</g>
</svg>
