<?xml version="1.0" encoding="UTF-8" standalone="no"?>
<!DOCTYPE svg PUBLIC "-//W3C//DTD SVG 1.1//EN"
 "http://www.w3.org/Graphics/SVG/1.1/DTD/svg11.dtd">
<!-- Generated by graphviz version 2.40.1 (20161225.0304)
 -->
<!-- Title: snakemake_dag Pages: 1 -->
<svg width="112pt" height="188pt"
 viewBox="0.00 0.00 112.00 188.00" xmlns="http://www.w3.org/2000/svg" xmlns:xlink="http://www.w3.org/1999/xlink">
<g id="graph0" class="graph" transform="scale(1 1) rotate(0) translate(4 184)">
<title>snakemake_dag</title>
<polygon fill="#ffffff" stroke="transparent" points="-4,4 -4,-184 108,-184 108,4 -4,4"/>
<!-- 0 -->
<g id="node1" class="node">
<title>0</title>
<path fill="none" stroke="#b6d856" stroke-width="2" d="M84.5,-36C84.5,-36 19.5,-36 19.5,-36 13.5,-36 7.5,-30 7.5,-24 7.5,-24 7.5,-12 7.5,-12 7.5,-6 13.5,0 19.5,0 19.5,0 84.5,0 84.5,0 90.5,0 96.5,-6 96.5,-12 96.5,-12 96.5,-24 96.5,-24 96.5,-30 90.5,-36 84.5,-36"/>
<text text-anchor="middle" x="52" y="-15.5" font-family="sans" font-size="10.00" fill="#000000">kirimp_encode</text>
</g>
<!-- 1 -->
<g id="node2" class="node">
<title>1</title>
<path fill="none" stroke="#56d8d8" stroke-width="2" d="M92,-108C92,-108 12,-108 12,-108 6,-108 0,-102 0,-96 0,-96 0,-84 0,-84 0,-78 6,-72 12,-72 12,-72 92,-72 92,-72 98,-72 104,-78 104,-84 104,-84 104,-96 104,-96 104,-102 98,-108 92,-108"/>
<text text-anchor="middle" x="52" y="-93" font-family="sans" font-size="10.00" fill="#000000">freq_encode_snps</text>
<text text-anchor="middle" x="52" y="-82" font-family="sans" font-size="10.00" fill="#000000">project: example</text>
</g>
<!-- 1&#45;&gt;0 -->
<g id="edge1" class="edge">
<title>1&#45;&gt;0</title>
<path fill="none" stroke="#c0c0c0" stroke-width="2" d="M52,-71.8314C52,-64.131 52,-54.9743 52,-46.4166"/>
<polygon fill="#c0c0c0" stroke="#c0c0c0" stroke-width="2" points="55.5001,-46.4132 52,-36.4133 48.5001,-46.4133 55.5001,-46.4132"/>
</g>
<!-- 2 -->
<g id="node3" class="node">
<title>2</title>
<path fill="none" stroke="#567bd8" stroke-width="2" stroke-dasharray="5,2" d="M90.5,-180C90.5,-180 13.5,-180 13.5,-180 7.5,-180 1.5,-174 1.5,-168 1.5,-168 1.5,-156 1.5,-156 1.5,-150 7.5,-144 13.5,-144 13.5,-144 90.5,-144 90.5,-144 96.5,-144 102.5,-150 102.5,-156 102.5,-156 102.5,-168 102.5,-168 102.5,-174 96.5,-180 90.5,-180"/>
<text text-anchor="middle" x="52" y="-159.5" font-family="sans" font-size="10.00" fill="#000000">get_kirimp_panel</text>
</g>
<!-- 2&#45;&gt;1 -->
<g id="edge2" class="edge">
<title>2&#45;&gt;1</title>
<path fill="none" stroke="#c0c0c0" stroke-width="2" d="M52,-143.8314C52,-136.131 52,-126.9743 52,-118.4166"/>
<polygon fill="#c0c0c0" stroke="#c0c0c0" stroke-width="2" points="55.5001,-118.4132 52,-108.4133 48.5001,-118.4133 55.5001,-118.4132"/>
</g>
</g>
</svg>
