<?xml version="1.0" encoding="UTF-8" standalone="no"?>
<!DOCTYPE svg PUBLIC "-//W3C//DTD SVG 1.1//EN"
 "http://www.w3.org/Graphics/SVG/1.1/DTD/svg11.dtd">
<!-- Generated by graphviz version 2.40.1 (20161225.0304)
 -->
<!-- Title: snakemake_dag Pages: 1 -->
<svg width="224pt" height="193pt"
 viewBox="0.00 0.00 224.00 193.00" xmlns="http://www.w3.org/2000/svg" xmlns:xlink="http://www.w3.org/1999/xlink">
<g id="graph0" class="graph" transform="scale(1 1) rotate(0) translate(4 189)">
<title>snakemake_dag</title>
<polygon fill="#ffffff" stroke="transparent" points="-4,4 -4,-189 220,-189 220,4 -4,4"/>
<!-- 0 -->
<g id="node1" class="node">
<title>0</title>
<path fill="none" stroke="#97d856" stroke-width="2" d="M136,-36C136,-36 79,-36 79,-36 73,-36 67,-30 67,-24 67,-24 67,-12 67,-12 67,-6 73,0 79,0 79,0 136,0 136,0 142,0 148,-6 148,-12 148,-12 148,-24 148,-24 148,-30 142,-36 136,-36"/>
<text text-anchor="middle" x="107.5" y="-15.5" font-family="sans" font-size="10.00" fill="#000000">kirimp_ready</text>
</g>
<!-- 1 -->
<g id="node2" class="node">
<title>1</title>
<path fill="none" stroke="#d85656" stroke-width="2" d="M87,-113C87,-113 12,-113 12,-113 6,-113 0,-107 0,-101 0,-101 0,-84 0,-84 0,-78 6,-72 12,-72 12,-72 87,-72 87,-72 93,-72 99,-78 99,-84 99,-84 99,-101 99,-101 99,-107 93,-113 87,-113"/>
<text text-anchor="middle" x="49.5" y="-101" font-family="sans" font-size="10.00" fill="#000000">shapeit4</text>
<text text-anchor="middle" x="49.5" y="-90" font-family="sans" font-size="10.00" fill="#000000">project: example</text>
<text text-anchor="middle" x="49.5" y="-79" font-family="sans" font-size="10.00" fill="#000000">region: 19</text>
</g>
<!-- 1&#45;&gt;0 -->
<g id="edge1" class="edge">
<title>1&#45;&gt;0</title>
<path fill="none" stroke="#c0c0c0" stroke-width="2" d="M65.6562,-71.7476C72.3286,-63.177 80.1378,-53.1463 87.1911,-44.0864"/>
<polygon fill="#c0c0c0" stroke="#c0c0c0" stroke-width="2" points="90.0206,-46.1494 93.402,-36.1087 84.4971,-41.8493 90.0206,-46.1494"/>
</g>
<!-- 2 -->
<g id="node3" class="node">
<title>2</title>
<path fill="none" stroke="#d6d856" stroke-width="2" d="M204,-113C204,-113 129,-113 129,-113 123,-113 117,-107 117,-101 117,-101 117,-84 117,-84 117,-78 123,-72 129,-72 129,-72 204,-72 204,-72 210,-72 216,-78 216,-84 216,-84 216,-101 216,-101 216,-107 210,-113 204,-113"/>
<text text-anchor="middle" x="166.5" y="-101" font-family="sans" font-size="10.00" fill="#000000">shapeit</text>
<text text-anchor="middle" x="166.5" y="-90" font-family="sans" font-size="10.00" fill="#000000">project: example</text>
<text text-anchor="middle" x="166.5" y="-79" font-family="sans" font-size="10.00" fill="#000000">region: 19</text>
</g>
<!-- 2&#45;&gt;0 -->
<g id="edge2" class="edge">
<title>2&#45;&gt;0</title>
<path fill="none" stroke="#c0c0c0" stroke-width="2" d="M150.0652,-71.7476C143.2778,-63.177 135.334,-53.1463 128.159,-44.0864"/>
<polygon fill="#c0c0c0" stroke="#c0c0c0" stroke-width="2" points="130.7933,-41.7751 121.8411,-36.1087 125.3057,-46.121 130.7933,-41.7751"/>
</g>
<!-- 3 -->
<g id="node4" class="node">
<title>3</title>
<path fill="none" stroke="#59d856" stroke-width="2" d="M160.5,-185C160.5,-185 54.5,-185 54.5,-185 48.5,-185 42.5,-179 42.5,-173 42.5,-173 42.5,-161 42.5,-161 42.5,-155 48.5,-149 54.5,-149 54.5,-149 160.5,-149 160.5,-149 166.5,-149 172.5,-155 172.5,-161 172.5,-161 172.5,-173 172.5,-173 172.5,-179 166.5,-185 160.5,-185"/>
<text text-anchor="middle" x="107.5" y="-164.5" font-family="sans" font-size="10.00" fill="#000000">generate_kirimp_gmap</text>
</g>
<!-- 3&#45;&gt;1 -->
<g id="edge3" class="edge">
<title>3&#45;&gt;1</title>
<path fill="none" stroke="#c0c0c0" stroke-width="2" d="M93.4598,-148.9656C86.9773,-140.6389 79.1214,-130.5481 71.854,-121.2133"/>
<polygon fill="#c0c0c0" stroke="#c0c0c0" stroke-width="2" points="74.5731,-119.0085 65.6683,-113.2679 69.0496,-123.3087 74.5731,-119.0085"/>
</g>
<!-- 3&#45;&gt;2 -->
<g id="edge4" class="edge">
<title>3&#45;&gt;2</title>
<path fill="none" stroke="#c0c0c0" stroke-width="2" d="M121.7823,-148.9656C128.3766,-140.6389 136.3679,-130.5481 143.7606,-121.2133"/>
<polygon fill="#c0c0c0" stroke="#c0c0c0" stroke-width="2" points="146.5883,-123.2802 150.053,-113.2679 141.1008,-118.9343 146.5883,-123.2802"/>
</g>
</g>
</svg>
