<?xml version="1.0" encoding="UTF-8" standalone="no"?>
<!DOCTYPE svg PUBLIC "-//W3C//DTD SVG 1.1//EN"
 "http://www.w3.org/Graphics/SVG/1.1/DTD/svg11.dtd">
<!-- Generated by graphviz version 2.40.1 (20161225.0304)
 -->
<!-- Title: snakemake_dag Pages: 1 -->
<svg width="260pt" height="260pt"
 viewBox="0.00 0.00 260.00 260.00" xmlns="http://www.w3.org/2000/svg" xmlns:xlink="http://www.w3.org/1999/xlink">
<g id="graph0" class="graph" transform="scale(1 1) rotate(0) translate(4 256)">
<title>snakemake_dag</title>
<polygon fill="#ffffff" stroke="transparent" points="-4,4 -4,-256 256,-256 256,4 -4,4"/>
<!-- 0 -->
<g id="node1" class="node">
<title>0</title>
<path fill="none" stroke="#567bd8" stroke-width="2" d="M147.5,-36C147.5,-36 90.5,-36 90.5,-36 84.5,-36 78.5,-30 78.5,-24 78.5,-24 78.5,-12 78.5,-12 78.5,-6 84.5,0 90.5,0 90.5,0 147.5,0 147.5,0 153.5,0 159.5,-6 159.5,-12 159.5,-12 159.5,-24 159.5,-24 159.5,-30 153.5,-36 147.5,-36"/>
<text text-anchor="middle" x="119" y="-15.5" font-family="sans" font-size="10.00" fill="#000000">kirimp_ready</text>
</g>
<!-- 1 -->
<g id="node2" class="node">
<title>1</title>
<path fill="none" stroke="#56d87b" stroke-width="2" d="M98.5,-108C98.5,-108 57.5,-108 57.5,-108 51.5,-108 45.5,-102 45.5,-96 45.5,-96 45.5,-84 45.5,-84 45.5,-78 51.5,-72 57.5,-72 57.5,-72 98.5,-72 98.5,-72 104.5,-72 110.5,-78 110.5,-84 110.5,-84 110.5,-96 110.5,-96 110.5,-102 104.5,-108 98.5,-108"/>
<text text-anchor="middle" x="78" y="-93" font-family="sans" font-size="10.00" fill="#000000">shapeit4</text>
<text text-anchor="middle" x="78" y="-82" font-family="sans" font-size="10.00" fill="#000000">region: 19</text>
</g>
<!-- 1&#45;&gt;0 -->
<g id="edge1" class="edge">
<title>1&#45;&gt;0</title>
<path fill="none" stroke="#c0c0c0" stroke-width="2" d="M88.346,-71.8314C92.9237,-63.7925 98.4052,-54.1666 103.4588,-45.2918"/>
<polygon fill="#c0c0c0" stroke="#c0c0c0" stroke-width="2" points="106.6077,-46.8351 108.5147,-36.4133 100.5248,-43.3712 106.6077,-46.8351"/>
</g>
<!-- 2 -->
<g id="node3" class="node">
<title>2</title>
<path fill="none" stroke="#d6d856" stroke-width="2" d="M181.5,-108C181.5,-108 140.5,-108 140.5,-108 134.5,-108 128.5,-102 128.5,-96 128.5,-96 128.5,-84 128.5,-84 128.5,-78 134.5,-72 140.5,-72 140.5,-72 181.5,-72 181.5,-72 187.5,-72 193.5,-78 193.5,-84 193.5,-84 193.5,-96 193.5,-96 193.5,-102 187.5,-108 181.5,-108"/>
<text text-anchor="middle" x="161" y="-93" font-family="sans" font-size="10.00" fill="#000000">shapeit</text>
<text text-anchor="middle" x="161" y="-82" font-family="sans" font-size="10.00" fill="#000000">region: 19</text>
</g>
<!-- 2&#45;&gt;0 -->
<g id="edge2" class="edge">
<title>2&#45;&gt;0</title>
<path fill="none" stroke="#c0c0c0" stroke-width="2" d="M150.4016,-71.8314C145.7123,-63.7925 140.0972,-54.1666 134.9202,-45.2918"/>
<polygon fill="#c0c0c0" stroke="#c0c0c0" stroke-width="2" points="137.8031,-43.2875 129.7411,-36.4133 131.7566,-46.8146 137.8031,-43.2875"/>
</g>
<!-- 3 -->
<g id="node4" class="node">
<title>3</title>
<path fill="none" stroke="#d8b456" stroke-width="2" d="M92,-180C92,-180 12,-180 12,-180 6,-180 0,-174 0,-168 0,-168 0,-156 0,-156 0,-150 6,-144 12,-144 12,-144 92,-144 92,-144 98,-144 104,-150 104,-156 104,-156 104,-168 104,-168 104,-174 98,-180 92,-180"/>
<text text-anchor="middle" x="52" y="-165" font-family="sans" font-size="10.00" fill="#000000">freq_encode_snps</text>
<text text-anchor="middle" x="52" y="-154" font-family="sans" font-size="10.00" fill="#000000">project: example</text>
</g>
<!-- 3&#45;&gt;1 -->
<g id="edge3" class="edge">
<title>3&#45;&gt;1</title>
<path fill="none" stroke="#c0c0c0" stroke-width="2" d="M58.5609,-143.8314C61.4027,-135.9617 64.7937,-126.5712 67.9419,-117.8533"/>
<polygon fill="#c0c0c0" stroke="#c0c0c0" stroke-width="2" points="71.2462,-119.0076 71.3508,-108.4133 64.6623,-116.63 71.2462,-119.0076"/>
</g>
<!-- 3&#45;&gt;2 -->
<g id="edge5" class="edge">
<title>3&#45;&gt;2</title>
<path fill="none" stroke="#c0c0c0" stroke-width="2" d="M79.5053,-143.8314C93.318,-134.7074 110.2256,-123.539 125.0529,-113.7449"/>
<polygon fill="#c0c0c0" stroke="#c0c0c0" stroke-width="2" points="127.0886,-116.5949 133.5035,-108.1628 123.2304,-110.7541 127.0886,-116.5949"/>
</g>
<!-- 4 -->
<g id="node5" class="node">
<title>4</title>
<path fill="none" stroke="#78d856" stroke-width="2" d="M240,-180C240,-180 134,-180 134,-180 128,-180 122,-174 122,-168 122,-168 122,-156 122,-156 122,-150 128,-144 134,-144 134,-144 240,-144 240,-144 246,-144 252,-150 252,-156 252,-156 252,-168 252,-168 252,-174 246,-180 240,-180"/>
<text text-anchor="middle" x="187" y="-159.5" font-family="sans" font-size="10.00" fill="#000000">generate_kirimp_gmap</text>
</g>
<!-- 4&#45;&gt;1 -->
<g id="edge4" class="edge">
<title>4&#45;&gt;1</title>
<path fill="none" stroke="#c0c0c0" stroke-width="2" d="M159.4947,-143.8314C145.682,-134.7074 128.7744,-123.539 113.9471,-113.7449"/>
<polygon fill="#c0c0c0" stroke="#c0c0c0" stroke-width="2" points="115.7696,-110.7541 105.4965,-108.1628 111.9114,-116.5949 115.7696,-110.7541"/>
</g>
<!-- 4&#45;&gt;2 -->
<g id="edge6" class="edge">
<title>4&#45;&gt;2</title>
<path fill="none" stroke="#c0c0c0" stroke-width="2" d="M180.4391,-143.8314C177.5973,-135.9617 174.2063,-126.5712 171.0581,-117.8533"/>
<polygon fill="#c0c0c0" stroke="#c0c0c0" stroke-width="2" points="174.3377,-116.63 167.6492,-108.4133 167.7538,-119.0076 174.3377,-116.63"/>
</g>
<!-- 5 -->
<g id="node6" class="node">
<title>5</title>
<path fill="none" stroke="#d87556" stroke-width="2" stroke-dasharray="5,2" d="M90.5,-252C90.5,-252 13.5,-252 13.5,-252 7.5,-252 1.5,-246 1.5,-240 1.5,-240 1.5,-228 1.5,-228 1.5,-222 7.5,-216 13.5,-216 13.5,-216 90.5,-216 90.5,-216 96.5,-216 102.5,-222 102.5,-228 102.5,-228 102.5,-240 102.5,-240 102.5,-246 96.5,-252 90.5,-252"/>
<text text-anchor="middle" x="52" y="-231.5" font-family="sans" font-size="10.00" fill="#000000">get_kirimp_panel</text>
</g>
<!-- 5&#45;&gt;3 -->
<g id="edge7" class="edge">
<title>5&#45;&gt;3</title>
<path fill="none" stroke="#c0c0c0" stroke-width="2" d="M52,-215.8314C52,-208.131 52,-198.9743 52,-190.4166"/>
<polygon fill="#c0c0c0" stroke="#c0c0c0" stroke-width="2" points="55.5001,-190.4132 52,-180.4133 48.5001,-190.4133 55.5001,-190.4132"/>
</g>
</g>
</svg>
