<?xml version="1.0" encoding="UTF-8" standalone="no"?>
<!DOCTYPE svg PUBLIC "-//W3C//DTD SVG 1.1//EN"
 "http://www.w3.org/Graphics/SVG/1.1/DTD/svg11.dtd">
<!-- Generated by graphviz version 2.40.1 (20161225.0304)
 -->
<!-- Title: snakemake_dag Pages: 1 -->
<svg width="230pt" height="337pt"
 viewBox="0.00 0.00 229.50 337.00" xmlns="http://www.w3.org/2000/svg" xmlns:xlink="http://www.w3.org/1999/xlink">
<g id="graph0" class="graph" transform="scale(1 1) rotate(0) translate(4 333)">
<title>snakemake_dag</title>
<polygon fill="#ffffff" stroke="transparent" points="-4,4 -4,-333 225.5,-333 225.5,4 -4,4"/>
<!-- 0 -->
<g id="node1" class="node">
<title>0</title>
<path fill="none" stroke="#59d856" stroke-width="2" d="M92.5,-36C92.5,-36 62.5,-36 62.5,-36 56.5,-36 50.5,-30 50.5,-24 50.5,-24 50.5,-12 50.5,-12 50.5,-6 56.5,0 62.5,0 62.5,0 92.5,0 92.5,0 98.5,0 104.5,-6 104.5,-12 104.5,-12 104.5,-24 104.5,-24 104.5,-30 98.5,-36 92.5,-36"/>
<text text-anchor="middle" x="77.5" y="-15.5" font-family="sans" font-size="10.00" fill="#000000">liftover</text>
</g>
<!-- 1 -->
<g id="node2" class="node">
<title>1</title>
<path fill="none" stroke="#97d856" stroke-width="2" stroke-dasharray="5,2" d="M81,-326.5C81,-326.5 12,-326.5 12,-326.5 6,-326.5 0,-320.5 0,-314.5 0,-314.5 0,-302.5 0,-302.5 0,-296.5 6,-290.5 12,-290.5 12,-290.5 81,-290.5 81,-290.5 87,-290.5 93,-296.5 93,-302.5 93,-302.5 93,-314.5 93,-314.5 93,-320.5 87,-326.5 81,-326.5"/>
<text text-anchor="middle" x="46.5" y="-311.5" font-family="sans" font-size="10.00" fill="#000000">get_overchain</text>
<text text-anchor="middle" x="46.5" y="-300.5" font-family="sans" font-size="10.00" fill="#000000">reference: hg18</text>
</g>
<!-- 1&#45;&gt;0 -->
<g id="edge1" class="edge">
<title>1&#45;&gt;0</title>
<path fill="none" stroke="#c0c0c0" stroke-width="2" d="M48.4392,-290.3279C53.6802,-241.2149 68.1574,-105.5496 74.4799,-46.3009"/>
<polygon fill="#c0c0c0" stroke="#c0c0c0" stroke-width="2" points="77.9806,-46.4802 75.5615,-36.1652 71.0201,-45.7373 77.9806,-46.4802"/>
</g>
<!-- 4 -->
<g id="node5" class="node">
<title>4</title>
<path fill="none" stroke="#d87556" stroke-width="2" d="M143.5,-252C143.5,-252 113.5,-252 113.5,-252 107.5,-252 101.5,-246 101.5,-240 101.5,-240 101.5,-228 101.5,-228 101.5,-222 107.5,-216 113.5,-216 113.5,-216 143.5,-216 143.5,-216 149.5,-216 155.5,-222 155.5,-228 155.5,-228 155.5,-240 155.5,-240 155.5,-246 149.5,-252 143.5,-252"/>
<text text-anchor="middle" x="128.5" y="-231.5" font-family="sans" font-size="10.00" fill="#000000">liftOver</text>
</g>
<!-- 1&#45;&gt;4 -->
<g id="edge6" class="edge">
<title>1&#45;&gt;4</title>
<path fill="none" stroke="#c0c0c0" stroke-width="2" d="M66.3499,-290.4656C76.748,-281.0186 89.6454,-269.3009 100.9914,-258.9926"/>
<polygon fill="#c0c0c0" stroke="#c0c0c0" stroke-width="2" points="103.5008,-261.4415 108.5487,-252.1265 98.7936,-256.2605 103.5008,-261.4415"/>
</g>
<!-- 2 -->
<g id="node3" class="node">
<title>2</title>
<path fill="none" stroke="#78d856" stroke-width="2" d="M140.5,-108C140.5,-108 96.5,-108 96.5,-108 90.5,-108 84.5,-102 84.5,-96 84.5,-96 84.5,-84 84.5,-84 84.5,-78 90.5,-72 96.5,-72 96.5,-72 140.5,-72 140.5,-72 146.5,-72 152.5,-78 152.5,-84 152.5,-84 152.5,-96 152.5,-96 152.5,-102 146.5,-108 140.5,-108"/>
<text text-anchor="middle" x="118.5" y="-87.5" font-family="sans" font-size="10.00" fill="#000000">create_vcf</text>
</g>
<!-- 2&#45;&gt;0 -->
<g id="edge2" class="edge">
<title>2&#45;&gt;0</title>
<path fill="none" stroke="#c0c0c0" stroke-width="2" d="M108.154,-71.8314C103.5763,-63.7925 98.0948,-54.1666 93.0412,-45.2918"/>
<polygon fill="#c0c0c0" stroke="#c0c0c0" stroke-width="2" points="95.9752,-43.3712 87.9853,-36.4133 89.8923,-46.8351 95.9752,-43.3712"/>
</g>
<!-- 3 -->
<g id="node4" class="node">
<title>3</title>
<path fill="none" stroke="#d85656" stroke-width="2" d="M170,-180C170,-180 87,-180 87,-180 81,-180 75,-174 75,-168 75,-168 75,-156 75,-156 75,-150 81,-144 87,-144 87,-144 170,-144 170,-144 176,-144 182,-150 182,-156 182,-156 182,-168 182,-168 182,-174 176,-180 170,-180"/>
<text text-anchor="middle" x="128.5" y="-159.5" font-family="sans" font-size="10.00" fill="#000000">create_plink_lifted</text>
</g>
<!-- 3&#45;&gt;2 -->
<g id="edge3" class="edge">
<title>3&#45;&gt;2</title>
<path fill="none" stroke="#c0c0c0" stroke-width="2" d="M125.9766,-143.8314C124.9071,-136.131 123.6353,-126.9743 122.4468,-118.4166"/>
<polygon fill="#c0c0c0" stroke="#c0c0c0" stroke-width="2" points="125.8999,-117.8367 121.0574,-108.4133 118.9664,-118.7997 125.8999,-117.8367"/>
</g>
<!-- 4&#45;&gt;3 -->
<g id="edge4" class="edge">
<title>4&#45;&gt;3</title>
<path fill="none" stroke="#c0c0c0" stroke-width="2" d="M128.5,-215.8314C128.5,-208.131 128.5,-198.9743 128.5,-190.4166"/>
<polygon fill="#c0c0c0" stroke="#c0c0c0" stroke-width="2" points="132.0001,-190.4132 128.5,-180.4133 125.0001,-190.4133 132.0001,-190.4132"/>
</g>
<!-- 5 -->
<g id="node6" class="node">
<title>5</title>
<path fill="none" stroke="#d89556" stroke-width="2" d="M209.5,-329C209.5,-329 123.5,-329 123.5,-329 117.5,-329 111.5,-323 111.5,-317 111.5,-317 111.5,-300 111.5,-300 111.5,-294 117.5,-288 123.5,-288 123.5,-288 209.5,-288 209.5,-288 215.5,-288 221.5,-294 221.5,-300 221.5,-300 221.5,-317 221.5,-317 221.5,-323 215.5,-329 209.5,-329"/>
<text text-anchor="middle" x="166.5" y="-317" font-family="sans" font-size="10.00" fill="#000000">generate_ucsc_bed</text>
<text text-anchor="middle" x="166.5" y="-306" font-family="sans" font-size="10.00" fill="#000000">project: example</text>
<text text-anchor="middle" x="166.5" y="-295" font-family="sans" font-size="10.00" fill="#000000">reference: hg18</text>
</g>
<!-- 5&#45;&gt;4 -->
<g id="edge5" class="edge">
<title>5&#45;&gt;4</title>
<path fill="none" stroke="#c0c0c0" stroke-width="2" d="M155.9149,-287.7476C151.7218,-279.5269 146.8434,-269.9627 142.3741,-261.2004"/>
<polygon fill="#c0c0c0" stroke="#c0c0c0" stroke-width="2" points="145.3983,-259.4265 137.7366,-252.1087 139.1626,-262.6071 145.3983,-259.4265"/>
</g>
</g>
</svg>
